<?xml version="1.0" encoding="UTF-8" standalone="no"?>
<svg
   xmlns:dc="http://purl.org/dc/elements/1.1/"
   xmlns:cc="http://creativecommons.org/ns#"
   xmlns:rdf="http://www.w3.org/1999/02/22-rdf-syntax-ns#"
   xmlns:svg="http://www.w3.org/2000/svg"
   xmlns="http://www.w3.org/2000/svg"
   version="1.1"
   id="svg10"
   xml:space="preserve"
   width="150"
   height="84"
   viewBox="0 0 150 84"><metadata
     id="metadata16"><rdf:RDF><cc:Work
         rdf:about=""><dc:format>image/svg+xml</dc:format><dc:type
           rdf:resource="http://purl.org/dc/dcmitype/StillImage" /><dc:title></dc:title></cc:Work></rdf:RDF></metadata><defs
     id="defs14"><clipPath
       clipPathUnits="userSpaceOnUse"
       id="clipPath34"><path
         d="M 0,549.77 H 593.6 V 0 H 0 Z"
         id="path32" /></clipPath></defs><g
     id="g18"
     transform="matrix(1.3333333,0,0,-1.3333333,0,733.02667)"><g
       id="g573"
       transform="translate(-77.4708,89.19695)"><g
         id="g20"
         transform="matrix(1.0270315,0,0,1.0270315,142.43003,417.71461)"><path
           d="M 0,0 V -10.626 H -2.512 V 0 H -5.873 V 2.241 H 3.362 V 0 Z"
           style="fill:#000000;fill-opacity:1;fill-rule:nonzero;stroke:none"
           id="path22" /></g><g
         id="g24"
         transform="matrix(1.0270315,0,0,1.0270315,147.97744,406.80086)"><path
           d="M 0,0 V 12.867 H 8.476 V 10.626 H 2.513 V 7.608 H 7.591 V 5.368 H 2.513 V 2.241 H 8.476 V 0 Z"
           style="fill:#000000;fill-opacity:1;fill-rule:nonzero;stroke:none"
           id="path26" /></g><g
         id="g36"
         transform="matrix(1.0270315,0,0,1.0270315,162.84125,406.68901)"><path
           d="m 0,0 c -1.951,0 -3.434,0.416 -4.699,1.7 l 1.628,1.626 c 0.812,-0.814 1.915,-1.084 3.107,-1.084 1.483,0 2.277,0.559 2.277,1.59 0,0.452 -0.125,0.831 -0.397,1.084 C 1.663,5.151 1.373,5.277 0.777,5.368 l -1.554,0.217 c -1.102,0.163 -1.915,0.506 -2.494,1.066 -0.615,0.614 -0.921,1.446 -0.921,2.531 0,2.294 1.699,3.903 4.481,3.903 1.772,0 3.055,-0.434 4.157,-1.5 L 2.855,10.013 c -0.812,0.777 -1.789,0.885 -2.638,0.885 -1.337,0 -1.988,-0.741 -1.988,-1.626 0,-0.326 0.109,-0.669 0.379,-0.922 0.253,-0.235 0.669,-0.434 1.193,-0.506 L 1.319,7.627 C 2.494,7.464 3.235,7.139 3.778,6.633 4.464,5.982 4.771,5.042 4.771,3.904 4.771,1.41 2.693,0 0,0"
           style="fill:#000000;fill-opacity:1;fill-rule:nonzero;stroke:none"
           id="path38" /></g><g
         id="g40"
         transform="matrix(1.0270315,0,0,1.0270315,170.16892,406.80086)"><path
           d="M 0,0 V 12.867 H 8.477 V 10.626 H 2.513 V 7.608 H 7.591 V 5.368 H 2.513 V 2.241 H 8.477 V 0 Z"
           style="fill:#000000;fill-opacity:1;fill-rule:nonzero;stroke:none"
           id="path42" /></g><g
         id="g44"
         transform="matrix(1.0270315,0,0,1.0270315,181.39509,406.80086)"><path
           d="M 0,0 V 12.867 H 2.513 V 2.241 H 8.35 V 0 Z"
           style="fill:#000000;fill-opacity:1;fill-rule:nonzero;stroke:none"
           id="path46" /></g><g
         id="g48"
         transform="matrix(1.0270315,0,0,1.0270315,92.982057,460.4156)"><path
           d="M 0,0 -15.103,-8.719 15.103,-26.158 45.308,-8.719 30.205,0 15.103,-8.718 Z"
           style="fill:#7fc7d5;fill-opacity:1;fill-rule:evenodd;stroke:none"
           id="path50" /></g><g
         id="g52"
         transform="matrix(1.0270315,0,0,1.0270315,77.471314,451.46071)"><path
           d="m 0,0 30.205,-17.438 v -34.878 l -15.102,8.719 v 17.439 L 0,-17.439 Z"
           style="fill:#037690;fill-opacity:1;fill-rule:evenodd;stroke:none"
           id="path54" /></g><g
         id="g56"
         transform="matrix(1.0270315,0,0,1.0270315,139.51439,451.46071)"><path
           d="m 0,0 -30.205,-17.438 v -34.878 l 15.102,8.719 v 17.439 L 0,-17.439 Z"
           style="fill:#00b2c4;fill-opacity:1;fill-rule:evenodd;stroke:none"
           id="path58" /></g></g></g></svg>
